# xmcd
#
# Track frame offsets:
#	150
#	13200
#	20400
#	28350
#	42225
#	47925
#	55050
#	79350
#	91275
#	109800
#	118650
#	135225
#	154200
#	166200
#	177975
#	185325
#	193050
#	204825
#	214500
#	223350
#	242700
#	252975
#	265425
#	279900
#	298275
#
# Disc length: 4176 seconds
#
# Revision: 0
# Processed by: cddbd v1.5.2PL0 Copyright (c) Steve Scherf et al.
# Submitted via: audiograbber 1.83.01
#
DISCID=79104e19
DTITLE=Сборник - Звезды Советского Кино 1930-1950 Vol.2
DYEAR=1900
DGENRE=
TTITLE0=Сердца четырех - Песня Галины
TTITLE1=Сердца четырех - Песня Шуры
TTITLE2=Свинарка и пастух - Песня Глаши
TTITLE3=Свинарка и пастух - Сцена Кузьмы и Глаши
TTITLE4=Свинарка и пастух - Серенада Кузьмы
TTITLE5=Свинарка и пастух - Ой вы, кони
TTITLE6=Свадьба - Увертюра
TTITLE7=Свадьба - Скажи, зачем
TTITLE8=Жди меня - Романс Лизы
TTITLE9=Александр Пархоменко - Вальс
TTITLE10=Боевой киносборник - Ночь над Белградом
TTITLE11=В 6 часов вечера после войны - Но дело не в этом друзья
TTITLE12=В 6 часов вечера после войны - Прощальная
TTITLE13=Беспокойное хозяйство - Расцвела сирень-черемуха
TTITLE14=Беспокойное хозяйство - Песня Тони
TTITLE15=Беспокойное хозяйство - Я добряк-холостяк
TTITLE16=Беспокойное хозяйство - Песня о Париже
TTITLE17=Золушка - Дразнят Золушкой меня
TTITLE18=Золушка - Добрый жук
TTITLE19=Весна - Сцена и песня
TTITLE20=Весна - Интермеццо
TTITLE21=Первая перчатка - Песня и куплеты
TTITLE22=Первая перчатка - Вальс
TTITLE23=Первая перчатка - На лодке
TTITLE24=Сказание о земле сибирской - Песня-дуэт
EXTD=
EXTT0=
EXTT1=
EXTT2=
EXTT3=
EXTT4=
EXTT5=
EXTT6=
EXTT7=
EXTT8=
EXTT9=
EXTT10=
EXTT11=
EXTT12=
EXTT13=
EXTT14=
EXTT15=
EXTT16=
EXTT17=
EXTT18=
EXTT19=
EXTT20=
EXTT21=
EXTT22=
EXTT23=
EXTT24=
PLAYORDER=
